# xmcd CD database file
#
# Track frame offsets:
#	150
#	15147
#	28807
#	44808
#	58329
#	72881
#	87683
#	101482
#	118764
#	137412
#	153273
#	166654
#	186416
#	203280
#	221120
#	236643
#	253089
#	266554
#	279685
#
# Disc length: 4022 seconds
#
# Revision: 0
# Processed by: cddbd v1.4PL0 Copyright (c) Steve Scherf et al.
# Submitted via: CDex 1.50
#
DISCID=160fb413
DTITLE=Brooks and Dunn - Greatest Hits Collection
DYEAR=1900
DGENRE=Country
TTITLE0=Boot Scootin' Boogie
TTITLE1=Brand New Man
TTITLE2=Days of Thunder
TTITLE3=Hard Workin' Man
TTITLE4=He's Got You
TTITLE5=Honky Tonk Truth
TTITLE6=Little Miss Honky Tonk
TTITLE7=Lost and Found
TTITLE8=Mama Don't Get Dressed Up for Nothing
TTITLE9=My Maria
TTITLE10=My Next Broken Heart
TTITLE11=Neon Moon
TTITLE12=Rock My World (Little Country Girl)
TTITLE13=She Used to Be Mine
TTITLE14=She's Not the Cheatin' Kind
TTITLE15=That Ain't No Way to Go
TTITLE16=We'll Burn That Bridge
TTITLE17=Whiskey Under the Bridge
TTITLE18=You're Gonna Miss Me When I'm Gone
EXTD=
EXTT0=
EXTT1=
EXTT2=
EXTT3=
EXTT4=
EXTT5=
EXTT6=
EXTT7=
EXTT8=
EXTT9=
EXTT10=
EXTT11=
EXTT12=
EXTT13=
EXTT14=
EXTT15=
EXTT16=
EXTT17=
EXTT18=
PLAYORDER=
